<?xml version="1.0" standalone="no"?>
<!DOCTYPE svg PUBLIC "-//W3C//DTD SVG 20010904//EN"
 "http://www.w3.org/TR/2001/REC-SVG-20010904/DTD/svg10.dtd">
<svg version="1.0" xmlns="http://www.w3.org/2000/svg"
 width="493.000000pt" height="314.000000pt" viewBox="0 0 493.000000 314.000000"
 preserveAspectRatio="xMidYMid meet">

<g transform="translate(0.000000,314.000000) scale(0.100000,-0.100000)"
fill="#000000" stroke="none">
<path d="M1666 2732 c-3 -10 8 -53 25 -97 27 -71 109 -311 109 -320 0 -2 -12
-5 -27 -7 -23 -2 -29 -8 -31 -36 -2 -17 6 -59 18 -91 45 -128 50 -178 50 -536
0 -357 -2 -368 -51 -529 -17 -54 -27 -102 -22 -106 9 -9 571 -16 1061 -12 189
1 348 0 352 -3 5 -3 167 -3 359 1 276 6 351 10 355 20 3 8 -8 46 -24 86 -47
118 -60 182 -60 303 0 80 6 131 19 181 25 87 52 166 57 161 2 -2 17 -111 34
-243 47 -366 66 -484 81 -499 15 -15 608 -13 618 3 7 12 27 165 91 687 22 178
38 272 56 325 15 41 25 86 24 100 -12 172 18 315 107 498 29 60 42 99 38 112
-6 20 -18 20 -1620 20 -1538 0 -1614 -1 -1619 -18z m960 -217 c22 -51 24 -68
24 -208 0 -93 4 -157 10 -163 8 -8 8 -25 1 -55 -6 -26 -11 -202 -11 -421 l0
-377 -24 -56 -25 -55 -93 0 c-92 0 -135 -12 -190 -52 -14 -10 -21 -9 -40 9
-38 36 -73 43 -204 43 l-124 0 7 43 c7 38 11 753 5 872 -1 28 0 87 4 131 5 73
2 94 -30 206 -20 68 -36 127 -36 131 0 4 158 7 351 7 l350 0 25 -55z m1008 13
c-10 -54 -10 -332 1 -375 l7 -33 -112 0 -111 0 5 53 c17 170 17 178 1 203 -15
23 -19 24 -140 24 -163 0 -155 11 -155 -216 0 -154 2 -174 19 -195 17 -22 22
-23 57 -13 22 6 47 15 57 19 16 7 17 -3 17 -124 l0 -130 -46 19 c-58 25 -69
25 -88 -2 -13 -18 -16 -55 -16 -193 0 -226 -8 -215 155 -215 170 0 166 -5 139
233 l-6 47 112 0 112 0 -7 -32 c-8 -33 -11 -327 -4 -383 l4 -30 -136 -5 c-129
-5 -137 -6 -172 -33 -40 -30 -62 -34 -74 -13 -20 35 -65 46 -197 46 l-129 0 9
48 c13 76 10 810 -3 857 -10 33 -9 44 2 62 17 25 21 148 6 185 -5 13 -17 50
-26 83 -9 33 -23 77 -31 98 -8 20 -14 42 -14 47 0 6 141 10 386 10 l387 0 -9
-42z m498 -128 c10 -222 87 -827 111 -864 22 -32 37 -33 60 0 24 33 105 649
115 874 l7 155 118 3 c64 1 117 0 117 -2 0 -3 -6 -25 -14 -48 -27 -80 -47
-203 -52 -308 -2 -58 -9 -121 -15 -140 -12 -42 -37 -210 -84 -575 -20 -148
-37 -279 -40 -291 -4 -17 -15 -22 -56 -27 -45 -6 -64 -14 -114 -51 -8 -6 -24
0 -47 18 -24 17 -54 29 -88 33 -28 3 -53 11 -55 17 -2 6 -27 193 -55 416 -28
223 -57 425 -66 450 -9 25 -17 88 -19 140 -4 102 -13 137 -69 273 -20 48 -36
90 -36 92 0 3 62 4 138 3 l137 -3 7 -165z m-340 -172 c-9 -9 -12 -7 -12 12 0
19 3 21 12 12 9 -9 9 -15 0 -24z m13 -37 c3 -5 1 -12 -5 -16 -5 -3 -10 1 -10
9 0 18 6 21 15 7z m39 -317 c4 -31 5 -57 4 -58 -2 -1 -94 0 -205 2 l-203 3 0
54 0 55 199 0 198 0 7 -56z"/>
<path d="M2197 2363 c-4 -3 -7 -226 -7 -495 l0 -489 118 3 117 3 3 479 c1 345
-1 483 -9 492 -8 10 -40 14 -114 14 -56 0 -105 -3 -108 -7z m110 -660 c-1 -98
-2 -20 -2 172 -1 193 1 273 2 178 2 -94 2 -252 0 -350z"/>
<path d="M30 2723 c0 -10 10 -43 21 -73 37 -96 81 -223 99 -287 l17 -63 -29 0
c-17 0 -31 -6 -35 -17 -3 -9 9 -62 28 -117 32 -94 34 -109 32 -216 -1 -63 -3
-130 -5 -149 -3 -32 0 -36 40 -55 23 -12 42 -26 42 -33 0 -6 -21 -23 -46 -38
-42 -25 -46 -29 -40 -59 22 -120 26 -210 15 -303 -18 -155 -19 -145 26 -168
38 -20 40 -24 45 -76 l5 -54 145 -3 c79 -1 149 -7 154 -12 13 -13 223 -13 231
0 4 6 90 10 226 10 187 0 219 2 219 15 0 8 -11 47 -24 87 -51 152 -56 193 -56
461 0 251 12 366 39 375 17 6 14 170 -3 187 -24 24 -39 144 -33 256 4 83 13
126 41 211 20 59 36 114 36 123 0 13 -68 15 -595 15 -560 0 -595 -1 -595 -17z
m1003 -175 c-10 -55 -11 -348 0 -410 l8 -48 -140 0 c-78 0 -141 1 -141 3 0 1
7 37 15 80 16 86 19 165 7 185 -7 9 -39 12 -128 10 l-119 -3 -3 -179 c-2 -123
1 -183 9 -192 9 -11 60 -14 256 -14 l244 0 -8 -37 c-11 -51 -10 -676 1 -735
l8 -48 -136 0 c-141 0 -153 -3 -209 -48 -36 -28 -46 -28 -77 1 -45 40 -75 47
-211 47 l-131 0 9 43 c10 51 11 357 1 410 l-7 37 141 0 c124 0 139 -2 134 -16
-13 -33 -27 -153 -24 -200 l3 -49 125 0 125 0 0 185 0 185 -254 3 -253 2 6 33
c15 78 18 222 6 288 -9 55 -9 73 0 84 25 30 6 178 -38 308 l-40 117 415 0 415
0 -9 -42z"/>
<path d="M6 47 c-5 -15 -6 -31 -2 -34 11 -11 18 5 14 34 l-4 28 -8 -28z"/>
<path d="M218 3 c34 -2 90 -2 125 0 34 2 6 3 -63 3 -69 0 -97 -1 -62 -3z"/>
</g>
</svg>
